<svg data-v-423bf9ae="" xmlns="http://www.w3.org/2000/svg" viewBox="0 0 242.34450564572916 60" class="font"><!----><!----><!----><g data-v-423bf9ae="" id="5ab9c163-cc27-443d-a94d-942aa4e6b6f2" fill="white" transform="matrix(4.784689009770447,0,0,4.784689009770447,-4.4976104949873985,-10.382775993081829)"><path d="M0.94 12.29L0.94 2.17L2.17 2.17L2.17 8.54L5.29 4.93L6.82 4.93L4.28 7.83L6.96 12.29L5.53 12.29L3.51 8.71L2.17 9.98L2.17 12.29L0.94 12.29ZM7.94 14.71L7.94 4.93L8.86 4.93L9.02 5.92L9.10 5.92L9.10 5.92Q9.46 5.35 10.06 5.05L10.06 5.05L10.06 5.05Q10.65 4.76 11.38 4.76L11.38 4.76L11.38 4.76Q12.78 4.76 13.54 5.70L13.54 5.70L13.54 5.70Q14.29 6.64 14.29 8.61L14.29 8.61L14.29 8.61Q14.29 10.54 13.54 11.50L13.54 11.50L13.54 11.50Q12.80 12.46 11.49 12.46L11.49 12.46L11.49 12.46Q10.71 12.46 10.16 12.22L10.16 12.22L10.16 12.22Q9.62 11.98 9.25 11.45L9.25 11.45L9.17 11.45L9.17 14.71L7.94 14.71ZM11.07 11.44L11.07 11.44Q11.79 11.44 12.21 11.17L12.21 11.17L12.21 11.17Q12.63 10.91 12.82 10.30L12.82 10.30L12.82 10.30Q13.02 9.70 13.02 8.67L13.02 8.67L13.02 8.61L13.02 8.61Q13.02 7.56 12.82 6.94L12.82 6.94L12.82 6.94Q12.63 6.33 12.20 6.05L12.20 6.05L12.20 6.05Q11.77 5.78 11.07 5.78L11.07 5.78L11.07 5.78Q10.09 5.78 9.63 6.50L9.63 6.50L9.63 6.50Q9.17 7.21 9.17 8.61L9.17 8.61L9.17 8.67L9.17 8.67Q9.17 10.04 9.63 10.74L9.63 10.74L9.63 10.74Q10.08 11.44 11.07 11.44L11.07 11.44ZM17.39 12.45L17.39 12.45Q16.63 12.45 16.28 12.00L16.28 12.00L16.28 12.00Q15.93 11.55 15.93 10.89L15.93 10.89L15.93 5.95L15.04 5.95L15.04 4.93L15.95 4.93L16.21 2.88L17.16 2.88L17.16 4.93L18.41 4.93L18.41 5.95L17.16 5.95L17.16 10.78L17.16 10.78Q17.16 11.44 17.78 11.44L17.78 11.44L18.41 11.44L18.41 12.25L18.41 12.25Q18.23 12.33 17.93 12.39L17.93 12.39L17.93 12.39Q17.64 12.45 17.39 12.45L17.39 12.45ZM19.61 14.71L19.61 4.93L20.54 4.93L20.69 5.92L20.78 5.92L20.78 5.92Q21.14 5.35 21.73 5.05L21.73 5.05L21.73 5.05Q22.33 4.76 23.06 4.76L23.06 4.76L23.06 4.76Q24.46 4.76 25.21 5.70L25.21 5.70L25.21 5.70Q25.97 6.64 25.97 8.61L25.97 8.61L25.97 8.61Q25.97 10.54 25.22 11.50L25.22 11.50L25.22 11.50Q24.47 12.46 23.17 12.46L23.17 12.46L23.17 12.46Q22.39 12.46 21.84 12.22L21.84 12.22L21.84 12.22Q21.29 11.98 20.93 11.45L20.93 11.45L20.85 11.45L20.85 14.71L19.61 14.71ZM22.75 11.44L22.75 11.44Q23.46 11.44 23.88 11.17L23.88 11.17L23.88 11.17Q24.30 10.91 24.50 10.30L24.50 10.30L24.50 10.30Q24.70 9.70 24.70 8.67L24.70 8.67L24.70 8.61L24.70 8.61Q24.70 7.56 24.50 6.94L24.50 6.94L24.50 6.94Q24.30 6.33 23.88 6.05L23.88 6.05L23.88 6.05Q23.45 5.78 22.75 5.78L22.75 5.78L22.75 5.78Q21.77 5.78 21.31 6.50L21.31 6.50L21.31 6.50Q20.85 7.21 20.85 8.61L20.85 8.61L20.85 8.67L20.85 8.67Q20.85 10.04 21.30 10.74L21.30 10.74L21.30 10.74Q21.76 11.44 22.75 11.44L22.75 11.44ZM27.40 12.29L27.40 2.17L28.63 2.17L28.63 12.29L27.40 12.29ZM32.51 12.46L32.51 12.46Q31.56 12.46 30.81 12.01L30.81 12.01L30.81 12.01Q30.07 11.56 30.07 10.39L30.07 10.39L30.07 10.39Q30.07 8.97 31.33 8.45L31.33 8.45L31.33 8.45Q32.59 7.92 34.97 7.92L34.97 7.92L34.97 7.11L34.97 7.11Q34.97 6.47 34.61 6.13L34.61 6.13L34.61 6.13Q34.24 5.78 33.29 5.78L33.29 5.78L33.29 5.78Q32.40 5.78 32.01 6.12L32.01 6.12L32.01 6.12Q31.63 6.45 31.63 6.94L31.63 6.94L31.63 7.11L30.44 7.11L30.44 7.11Q30.42 7.03 30.42 6.80L30.42 6.80L30.42 6.80Q30.42 5.82 31.23 5.29L31.23 5.29L31.23 5.29Q32.05 4.76 33.40 4.76L33.40 4.76L33.40 4.76Q34.78 4.76 35.49 5.33L35.49 5.33L35.49 5.33Q36.20 5.91 36.20 6.96L36.20 6.96L36.20 10.95L36.20 10.95Q36.20 11.20 36.34 11.32L36.34 11.32L36.34 11.32Q36.48 11.44 36.69 11.44L36.69 11.44L37.25 11.44L37.25 12.24L37.25 12.24Q36.89 12.40 36.30 12.40L36.30 12.40L36.30 12.40Q35.83 12.40 35.50 12.12L35.50 12.12L35.50 12.12Q35.18 11.83 35.07 11.35L35.07 11.35L34.97 11.35L34.97 11.35Q34.59 11.87 33.94 12.17L33.94 12.17L33.94 12.17Q33.29 12.46 32.51 12.46L32.51 12.46ZM32.83 11.44L32.83 11.44Q33.38 11.44 33.87 11.21L33.87 11.21L33.87 11.21Q34.36 10.99 34.66 10.55L34.66 10.55L34.66 10.55Q34.97 10.11 34.97 9.48L34.97 9.48L34.97 8.95L34.97 8.95Q33.17 8.95 32.26 9.23L32.26 9.23L32.26 9.23Q31.36 9.52 31.36 10.32L31.36 10.32L31.36 10.32Q31.36 10.92 31.73 11.18L31.73 11.18L31.73 11.18Q32.10 11.44 32.83 11.44L32.83 11.44ZM38.29 12.29L38.29 4.93L39.23 4.93L39.37 5.92L39.47 5.92L39.47 5.92Q40.28 4.76 41.94 4.76L41.94 4.76L41.94 4.76Q43.05 4.76 43.64 5.35L43.64 5.35L43.64 5.35Q44.24 5.95 44.24 7.27L44.24 7.27L44.24 12.29L43.01 12.29L43.01 7.35L43.01 7.35Q43.01 6.47 42.62 6.13L42.62 6.13L42.62 6.13Q42.22 5.78 41.48 5.78L41.48 5.78L41.48 5.78Q40.95 5.78 40.50 6.04L40.50 6.04L40.50 6.04Q40.05 6.30 39.79 6.79L39.79 6.79L39.79 6.79Q39.52 7.28 39.52 7.94L39.52 7.94L39.52 12.29L38.29 12.29ZM48.59 12.46L48.59 12.46Q47.57 12.46 46.89 12.16L46.89 12.16L46.89 12.16Q46.21 11.86 45.89 11.37L45.89 11.37L45.89 11.37Q45.57 10.88 45.57 10.30L45.57 10.30L45.57 10.30Q45.57 10.14 45.58 10.07L45.58 10.07L45.58 10.07Q45.58 10.01 45.58 10.00L45.58 10.00L46.80 10.00L46.80 10.14L46.80 10.14Q46.80 10.79 47.32 11.12L47.32 11.12L47.32 11.12Q47.84 11.45 48.66 11.45L48.66 11.45L48.66 11.45Q49.38 11.45 49.85 11.16L49.85 11.16L49.85 11.16Q50.32 10.88 50.32 10.36L50.32 10.36L50.32 10.36Q50.32 9.95 50.05 9.70L50.05 9.70L50.05 9.70Q49.78 9.44 49.39 9.29L49.39 9.29L49.39 9.29Q49.00 9.14 48.33 8.97L48.33 8.97L48.33 8.97Q47.52 8.76 47.00 8.55L47.00 8.55L47.00 8.55Q46.49 8.34 46.14 7.93L46.14 7.93L46.14 7.93Q45.78 7.52 45.78 6.86L45.78 6.86L45.78 6.86Q45.78 5.89 46.57 5.33L46.57 5.33L46.57 5.33Q47.36 4.76 48.71 4.76L48.71 4.76L48.71 4.76Q49.55 4.76 50.16 5.03L50.16 5.03L50.16 5.03Q50.78 5.31 51.09 5.76L51.09 5.76L51.09 5.76Q51.41 6.22 51.41 6.78L51.41 6.78L51.39 7.04L50.19 7.04L50.19 6.92L50.19 6.92Q50.19 6.43 49.80 6.10L49.80 6.10L49.80 6.10Q49.42 5.78 48.57 5.78L48.57 5.78L48.57 5.78Q47.73 5.78 47.39 6.08L47.39 6.08L47.39 6.08Q47.05 6.38 47.05 6.78L47.05 6.78L47.05 6.78Q47.05 7.10 47.29 7.31L47.29 7.31L47.29 7.31Q47.53 7.52 47.88 7.64L47.88 7.64L47.88 7.64Q48.23 7.77 48.86 7.92L48.86 7.92L48.86 7.92Q49.73 8.15 50.27 8.37L50.27 8.37L50.27 8.37Q50.82 8.58 51.20 9.02L51.20 9.02L51.20 9.02Q51.59 9.46 51.59 10.19L51.59 10.19L51.59 10.19Q51.59 11.33 50.77 11.89L50.77 11.89L50.77 11.89Q49.95 12.46 48.59 12.46L48.59 12.46Z"></path></g><!----><!----></svg>